<svg width="420" height="420" viewBox="0 0 420 420" xmlns="http://www.w3.org/2000/svg" font-family="'Segoe UI', Helvetica, Arial, sans-serif">
  <rect x="0.5" y="0.5" width="419" height="419" rx="12" fill="#0d1117" stroke="#30363d"/>
  <text x="24" y="32" font-size="16" font-weight="700" fill="#a5c8ff">Repos by Focus Area</text>

  <g>
    <polygon points="210,167.5 240.90933677959248,189.95694768281422 229.10302069950538,226.29305231718578 190.89697930049462,226.29305231718578 179.09066322040752,189.9569476828142" fill="none" stroke="#30363d" stroke-width="1" />
<polygon points="210,135 271.81867355918496,179.91389536562843 248.20604139901076,252.5861046343716 171.79395860098924,252.5861046343716 148.181326440815,179.9138953656284" fill="none" stroke="#30363d" stroke-width="1" />
<polygon points="210,102.5 302.7280103387775,169.87084304844262 267.3090620985161,278.8791569515574 152.6909379014839,278.8791569515574 117.27198966122253,169.8708430484426" fill="none" stroke="#30363d" stroke-width="1" />
<polygon points="210,70 333.63734711837,159.82779073125684 286.4120827980215,305.1722092687432 133.5879172019785,305.1722092687432 86.36265288163004,159.8277907312568" fill="none" stroke="#30363d" stroke-width="1" />
    <line x1="210" y1="200" x2="210" y2="70" stroke="#30363d" stroke-width="1" />
<line x1="210" y1="200" x2="333.63734711837" y2="159.82779073125684" stroke="#30363d" stroke-width="1" />
<line x1="210" y1="200" x2="286.4120827980215" y2="305.1722092687432" stroke="#30363d" stroke-width="1" />
<line x1="210" y1="200" x2="133.5879172019785" y2="305.1722092687432" stroke="#30363d" stroke-width="1" />
<line x1="210" y1="200" x2="86.36265288163004" y2="159.8277907312568" stroke="#30363d" stroke-width="1" />
  </g>

  <polygon points="210,122 284.182408271022,175.8966744387541 286.4120827980215,305.1722092687432 179.4351668807914,242.06888370749726 210,200" fill="rgba(110, 64, 201, 0.35)" stroke="#00d4ff" stroke-width="2" />
  <circle cx="210" cy="122" r="4" fill="#00d4ff" />
<circle cx="284.182408271022" cy="175.8966744387541" r="4" fill="#00d4ff" />
<circle cx="286.4120827980215" cy="305.1722092687432" r="4" fill="#00d4ff" />
<circle cx="179.4351668807914" cy="242.06888370749726" r="4" fill="#00d4ff" />
<circle cx="210" cy="200" r="4" fill="#00d4ff" />

  <text x="210" y="42" font-size="13" fill="#a5c8ff" text-anchor="middle" dominant-baseline="middle">Computer Vision (3)</text>
<text x="360.2669295746342" y="151.1753148887583" font-size="13" fill="#a5c8ff" text-anchor="start" dominant-baseline="middle">RAG & Agentic (3)</text>
<text x="302.87006986221076" y="327.8246851112417" font-size="13" fill="#a5c8ff" text-anchor="start" dominant-baseline="middle">MLOps (5)</text>
<text x="117.12993013778926" y="327.8246851112417" font-size="13" fill="#a5c8ff" text-anchor="end" dominant-baseline="middle">Bioinformatics (2)</text>
<text x="59.73307042536575" y="151.17531488875827" font-size="13" fill="#a5c8ff" text-anchor="end" dominant-baseline="middle">NLP (0)</text>
</svg>