<svg width="640" height="480" viewBox="0 0 640 480" xmlns="http://www.w3.org/2000/svg" font-family="'Segoe UI', Helvetica, Arial, sans-serif">
  <rect x="0.5" y="0.5" width="639" height="479" rx="12" fill="#0d1117" stroke="#30363d"/>
  <text x="24" y="32" font-size="16" font-weight="700" fill="#a5c8ff">Repos by Focus Area</text>

  <g>
    <polygon points="280,215 313.28697807033035,239.18440519687684 300.57248383023654,278.3155948031232 259.42751616976346,278.3155948031232 246.71302192966962,239.18440519687684" fill="none" stroke="#30363d" stroke-width="1" />
<polygon points="280,180 346.57395614066075,228.36881039375368 321.1449676604731,306.6311896062463 238.85503233952687,306.6311896062463 213.42604385933925,228.36881039375365" fill="none" stroke="#30363d" stroke-width="1" />
<polygon points="280,145 379.8609342109911,217.55321559063051 341.71745149070966,334.94678440936946 218.28254850929034,334.94678440936946 180.1390657890089,217.5532155906305" fill="none" stroke="#30363d" stroke-width="1" />
<polygon points="280,110 413.1479122813215,206.73762078750735 362.28993532094626,363.26237921249265 197.71006467905377,363.26237921249265 146.85208771867852,206.73762078750732" fill="none" stroke="#30363d" stroke-width="1" />
    <line x1="280" y1="250" x2="280" y2="110" stroke="#30363d" stroke-width="1" />
<line x1="280" y1="250" x2="413.1479122813215" y2="206.73762078750735" stroke="#30363d" stroke-width="1" />
<line x1="280" y1="250" x2="362.28993532094626" y2="363.26237921249265" stroke="#30363d" stroke-width="1" />
<line x1="280" y1="250" x2="197.71006467905377" y2="363.26237921249265" stroke="#30363d" stroke-width="1" />
<line x1="280" y1="250" x2="146.85208771867852" y2="206.73762078750732" stroke="#30363d" stroke-width="1" />
  </g>

  <polygon points="280,166 359.8887473687929,224.04257247250442 362.28993532094626,363.26237921249265 247.08402587162152,295.30495168499704 280,250" fill="rgba(110, 64, 201, 0.35)" stroke="#00d4ff" stroke-width="2" />
  <circle cx="280" cy="166" r="4" fill="#00d4ff" />
<circle cx="359.8887473687929" cy="224.04257247250442" r="4" fill="#00d4ff" />
<circle cx="362.28993532094626" cy="363.26237921249265" r="4" fill="#00d4ff" />
<circle cx="247.08402587162152" cy="295.30495168499704" r="4" fill="#00d4ff" />
<circle cx="280" cy="250" r="4" fill="#00d4ff" />

  <text x="280" y="80" font-size="13" fill="#a5c8ff" text-anchor="middle" dominant-baseline="middle">Computer Vision (3)</text>
<text x="441.67960777017606" y="197.46711095625895" font-size="13" fill="#a5c8ff" text-anchor="start" dominant-baseline="middle">RAG &amp; Agentic (3)</text>
<text x="379.9234928897204" y="387.5328890437411" font-size="13" fill="#a5c8ff" text-anchor="start" dominant-baseline="middle">MLOps (5)</text>
<text x="180.07650711027958" y="387.5328890437411" font-size="13" fill="#a5c8ff" text-anchor="end" dominant-baseline="middle">Bioinformatics (2)</text>
<text x="118.32039222982391" y="197.4671109562589" font-size="13" fill="#a5c8ff" text-anchor="end" dominant-baseline="middle">NLP (0)</text>
</svg>